<?xml version="1.0" standalone="no"?>
<!DOCTYPE svg PUBLIC "-//W3C//DTD SVG 20010904//EN"
 "http://www.w3.org/TR/2001/REC-SVG-20010904/DTD/svg10.dtd">
<svg version="1.0" xmlns="http://www.w3.org/2000/svg"
 width="680.000000pt" height="680.000000pt" viewBox="0 0 680.000000 680.000000"
 preserveAspectRatio="xMidYMid meet">
<metadata>
Created by potrace 1.11, written by Peter Selinger 2001-2013
</metadata>
<g transform="translate(0.000000,680.000000) scale(0.100000,-0.100000)"
fill="#000000" stroke="none">
<path d="M1287 6559 c-50 -12 -96 -35 -130 -68 -33 -30 -70 -97 -62 -111 3 -5
2 -11 -3 -14 -14 -8 4 -117 27 -169 12 -26 35 -57 51 -69 17 -12 30 -28 30
-35 0 -7 9 -18 20 -25 11 -7 20 -18 20 -25 0 -7 5 -13 10 -13 6 0 10 -7 10
-15 0 -8 4 -15 9 -15 10 0 65 -118 82 -178 14 -49 12 -52 -56 -77 -169 -60
-341 -182 -450 -318 -66 -81 -170 -271 -159 -288 3 -5 0 -9 -6 -9 -7 0 -10 -7
-6 -15 3 -8 1 -15 -5 -15 -5 0 -9 -6 -8 -12 4 -22 -12 -98 -22 -104 -5 -3 -8
-8 -5 -12 2 -4 0 -34 -5 -67 -5 -33 -9 -128 -9 -211 l0 -151 -27 -6 c-37 -7
-174 -97 -201 -132 -32 -40 -37 -71 -23 -139 13 -60 78 -218 93 -224 5 -2 8
-10 8 -18 0 -8 5 -14 10 -14 6 0 10 -7 10 -15 0 -9 7 -18 15 -21 8 -4 15 -12
15 -19 0 -7 23 -32 50 -55 l50 -42 0 -368 0 -367 -42 -28 c-94 -62 -231 -216
-241 -272 -2 -10 -7 -25 -11 -34 -4 -8 0 -29 9 -45 8 -16 15 -35 15 -41 0 -7
5 -13 10 -13 6 0 10 -7 10 -15 0 -8 5 -15 10 -15 6 0 10 -7 10 -15 0 -9 7 -18
15 -21 8 -4 15 -11 15 -18 0 -15 72 -86 88 -86 6 0 16 -9 22 -20 6 -11 17 -20
25 -20 8 0 15 -4 15 -10 0 -5 5 -10 11 -10 6 0 17 -6 25 -14 12 -12 14 -75 14
-371 l0 -357 -51 -56 c-82 -90 -177 -241 -164 -261 3 -5 1 -11 -4 -13 -6 -1
-13 -19 -16 -38 -3 -19 -10 -52 -16 -72 -7 -28 -6 -46 7 -80 19 -47 51 -88 70
-88 6 0 14 -7 18 -15 3 -8 12 -15 20 -15 8 0 21 -6 28 -13 7 -7 32 -21 55 -31
24 -11 43 -23 43 -27 0 -4 12 -9 27 -11 23 -3 29 -12 48 -68 12 -36 34 -88 49
-117 14 -29 26 -59 26 -68 0 -9 7 -18 15 -21 8 -4 15 -12 15 -20 0 -8 5 -14
10 -14 6 0 10 -7 10 -15 0 -9 7 -18 15 -21 8 -4 15 -12 15 -20 0 -7 9 -18 20
-24 11 -6 20 -16 20 -22 0 -16 81 -98 97 -98 7 0 17 -9 23 -20 6 -11 17 -20
26 -20 8 0 17 -7 20 -15 4 -8 12 -15 20 -15 8 0 14 -4 14 -10 0 -5 6 -10 14
-10 8 0 16 -3 18 -7 4 -11 173 -88 233 -107 149 -47 87 -46 2065 -46 2001 0
1924 -2 2076 50 73 26 198 82 202 92 2 5 10 8 18 8 8 0 14 5 14 10 0 6 7 10
15 10 8 0 15 5 15 10 0 6 7 10 15 10 9 0 18 7 21 15 4 8 10 15 16 15 12 0 158
146 158 158 0 6 7 12 15 16 8 3 15 12 15 20 0 7 7 16 15 20 8 3 15 12 15 20 0
8 6 21 13 28 15 15 93 182 102 218 10 40 25 53 105 90 41 19 77 38 78 43 2 4
10 7 18 7 8 0 14 5 14 10 0 6 6 10 13 10 32 0 77 78 77 133 0 53 -70 246 -92
255 -4 2 -8 10 -8 18 0 8 -4 14 -10 14 -5 0 -10 7 -10 15 0 8 -4 15 -10 15 -5
0 -10 6 -10 14 0 8 -11 23 -25 34 -14 11 -25 24 -25 29 0 5 -16 24 -35 43
l-35 34 0 363 0 364 26 24 c15 14 33 25 40 25 8 0 14 5 14 10 0 6 5 10 12 10
13 0 128 111 128 124 0 5 6 14 13 20 7 6 24 35 37 64 22 49 23 57 11 100 -7
26 -16 49 -22 50 -5 2 -9 10 -9 18 0 8 -4 14 -10 14 -5 0 -10 7 -10 15 0 8
-11 22 -24 30 -13 9 -26 25 -29 36 -3 11 -15 23 -26 26 -11 3 -27 16 -36 29
-8 13 -22 24 -30 24 -8 0 -15 5 -15 10 0 6 -7 10 -15 10 -8 0 -15 5 -15 10 0
6 -7 10 -15 10 -8 0 -16 1 -17 3 -1 1 -4 171 -7 377 l-6 374 53 50 c28 28 52
56 52 63 0 8 7 16 15 19 8 4 15 13 15 20 0 8 7 17 15 20 8 4 15 12 15 20 0 8
9 22 20 31 11 10 20 24 20 33 0 8 11 42 25 75 39 95 42 139 14 196 -13 27 -29
49 -35 49 -7 0 -14 7 -18 15 -3 8 -12 15 -21 15 -8 0 -15 5 -15 10 0 6 -7 10
-15 10 -8 0 -15 4 -15 8 0 4 -22 16 -49 27 -27 10 -54 28 -60 39 -5 12 -12
100 -15 196 -5 177 -18 266 -55 373 -28 79 -73 179 -88 195 -7 7 -13 20 -13
28 0 8 -4 14 -10 14 -5 0 -10 7 -10 15 0 8 -5 15 -10 15 -6 0 -15 11 -20 25
-5 14 -14 25 -20 25 -5 0 -10 5 -10 12 0 16 -111 128 -126 128 -7 0 -14 7 -18
15 -3 8 -12 15 -21 15 -8 0 -15 5 -15 11 0 5 -13 15 -30 20 -16 6 -30 15 -30
20 0 5 -7 9 -15 9 -8 0 -23 9 -32 20 -10 11 -26 20 -36 20 -10 0 -32 8 -50 17
-18 9 -35 17 -39 18 -3 0 -10 3 -14 8 -4 4 -15 7 -24 7 -33 0 -44 26 -31 73
18 61 62 157 72 157 5 0 9 7 9 15 0 8 5 15 10 15 6 0 10 6 10 14 0 8 7 16 15
20 8 3 15 10 15 16 0 6 16 24 35 41 19 17 35 37 35 45 0 7 6 17 13 21 7 4 20
26 29 48 41 101 41 101 0 200 -26 62 -113 135 -161 135 -9 0 -22 5 -28 11 -16
16 -106 -5 -159 -36 -43 -25 -110 -98 -186 -201 -49 -68 -133 -223 -124 -231
3 -3 -2 -12 -10 -20 -8 -9 -13 -22 -10 -29 3 -8 1 -14 -4 -14 -6 0 -10 -9 -10
-19 0 -11 -5 -32 -11 -48 -7 -15 -13 -35 -14 -43 -5 -37 -18 -86 -29 -102 -10
-17 -84 -18 -1557 -18 l-1546 0 -6 43 c-3 23 -20 84 -36 135 -17 52 -31 100
-31 108 0 8 -4 14 -8 14 -5 0 -22 28 -38 63 -16 34 -35 68 -41 75 -7 7 -13 20
-13 28 0 8 -4 14 -10 14 -5 0 -10 7 -10 15 0 8 -4 15 -10 15 -5 0 -10 7 -10
15 0 9 -7 18 -15 21 -8 4 -15 12 -15 20 0 7 -9 18 -20 24 -11 6 -20 16 -20 23
0 16 -82 97 -98 97 -7 0 -12 4 -12 8 0 8 -63 35 -90 38 -8 1 -22 4 -30 7 -8 3
-32 1 -53 -4z m478 -1271 c184 -45 341 -218 372 -408 27 -167 -23 -319 -146
-440 -106 -104 -214 -150 -356 -150 -142 0 -251 46 -355 150 -105 105 -150
213 -150 360 0 130 45 244 134 338 134 144 312 197 501 150z m3510 6 c139 -21
286 -129 352 -258 42 -82 54 -127 58 -211 17 -338 -284 -594 -617 -524 -169
35 -333 192 -378 359 -18 64 -16 216 3 281 17 56 72 156 110 198 72 79 198
145 300 157 29 4 54 8 57 11 2 2 23 1 45 -2 22 -4 54 -9 70 -11z m75 -1477
c196 -76 326 -214 375 -397 23 -84 22 -2218 0 -2305 -51 -198 -208 -358 -405
-409 -81 -21 -1209 -22 -1290 -1 -180 48 -320 177 -396 364 -25 62 -69 221
-78 282 -3 20 -7 42 -10 50 -3 8 -7 32 -10 54 -3 22 -8 51 -11 65 -2 13 -7 42
-11 65 -3 22 -8 47 -9 55 -2 8 -4 20 -4 27 -2 27 -63 83 -90 83 -47 0 -87 -40
-97 -96 -2 -13 -6 -36 -9 -51 -3 -16 -7 -48 -11 -73 -3 -25 -7 -53 -10 -62 -5
-16 -9 -37 -19 -88 -3 -14 -7 -36 -10 -50 -3 -14 -8 -41 -11 -60 -10 -62 -74
-242 -106 -299 -47 -83 -150 -182 -229 -219 -131 -62 -127 -62 -760 -62 -348
0 -598 4 -630 10 -144 27 -303 146 -372 278 -77 147 -72 58 -72 1282 0 901 2
1105 14 1150 50 199 219 368 414 416 41 10 441 12 1927 11 1762 -2 1878 -3
1920 -20z"/>
<path d="M1505 3696 c-152 -48 -267 -175 -295 -325 -11 -60 -12 -2146 -1
-2196 10 -46 22 1288 14 1678 -7 379 -1 441 47 536 32 63 96 132 155 166 96
57 -1 54 1998 55 2022 2 1876 6 1982 -55 48 -27 126 -108 150 -155 48 -93 49
-99 55 -465 l6 -350 2 350 c1 206 -2 377 -9 415 -26 164 -128 287 -283 340
-59 20 -78 20 -1920 19 -1474 0 -1869 -3 -1901 -13z"/>
<path d="M2637 3199 c-54 -29 -84 -96 -68 -150 42 -140 223 -139 270 0 10 30
8 41 -11 80 -42 82 -118 110 -191 70z"/>
<path d="M4048 3200 c-98 -53 -93 -197 9 -242 72 -32 142 -7 178 62 60 116
-72 242 -187 180z"/>
<path d="M2425 3080 c-4 -14 -8 -52 -8 -85 1 -103 71 -208 170 -255 65 -30
173 -28 241 6 116 58 187 207 153 324 -7 22 -8 19 -14 -20 -9 -58 -57 -142
-100 -174 -135 -103 -323 -59 -402 94 -8 16 -19 53 -23 82 -7 47 -9 50 -17 28z"/>
<path d="M3836 3039 c-11 -81 11 -153 69 -217 60 -66 121 -95 205 -95 110 0
201 56 251 155 24 48 40 176 20 164 -6 -4 -11 -15 -11 -24 0 -30 -57 -117 -94
-146 -52 -39 -98 -56 -157 -56 -74 0 -124 18 -175 63 -52 46 -83 101 -93 166
l-8 46 -7 -56z"/>
<path d="M1867 2806 c-143 -39 -209 -190 -141 -323 95 -186 360 -153 419 51
15 52 15 60 1 104 -24 71 -58 115 -112 144 -63 33 -108 40 -167 24z"/>
<path d="M4850 2811 c-75 -15 -135 -64 -168 -138 -26 -60 -15 -159 24 -217 59
-84 187 -119 280 -77 74 34 134 126 134 207 0 137 -137 251 -270 225z"/>
<path d="M1561 2620 c-1 -8 -6 -37 -11 -65 -25 -152 68 -317 220 -389 57 -27
75 -31 150 -30 110 1 180 27 255 95 96 89 141 217 120 345 l-9 49 -7 -63 c-16
-130 -92 -238 -208 -294 -57 -28 -77 -32 -146 -33 -71 0 -88 4 -147 33 -119
58 -194 166 -208 297 -4 39 -8 63 -9 55z"/>
<path d="M4534 2498 c8 -140 80 -249 205 -311 58 -28 75 -32 151 -32 76 0 93
4 151 32 118 59 194 167 204 294 l5 64 -13 -47 c-19 -66 -79 -152 -135 -193
-139 -103 -317 -94 -442 22 -62 57 -104 127 -120 203 -8 40 -9 36 -6 -32z"/>
<path d="M2169 1936 c-133 -47 -211 -154 -215 -296 -3 -99 29 -174 105 -242
130 -117 333 -106 449 26 43 49 58 81 72 152 30 152 -61 307 -209 359 -54 18
-153 19 -202 1z"/>
<path d="M4460 1941 c-158 -51 -260 -215 -225 -363 36 -156 142 -248 293 -256
92 -5 146 10 208 57 193 146 165 436 -54 542 -50 25 -174 36 -222 20z"/>
<path d="M2710 1595 c0 -24 -11 -74 -24 -109 -77 -214 -308 -338 -526 -282
-170 44 -298 185 -333 367 l-12 64 -3 -68 c-5 -123 36 -226 130 -323 221 -231
590 -170 734 120 33 69 38 86 42 176 3 55 2 100 -2 100 -3 0 -6 -20 -6 -45z"/>
<path d="M4101 1565 c-2 -48 21 -145 49 -201 38 -78 120 -156 207 -197 55 -25
83 -32 155 -35 185 -9 341 81 422 245 37 74 41 104 7 46 -110 -186 -325 -275
-520 -214 -152 47 -281 187 -311 334 -4 23 -8 33 -9 22z"/>
</g>
</svg>
